<svg width="34" height="34" viewBox="0 0 34 34" fill="none" xmlns="http://www.w3.org/2000/svg">
<g filter="url(#filter0_d_1633_31491)">
<circle cx="16" cy="16" r="13" fill="white"/>
</g>
<path d="M16 27.375C9.71776 27.375 4.625 22.2822 4.625 16C4.625 9.71776 9.71776 4.625 16 4.625C22.2822 4.625 27.375 9.71776 27.375 16C27.375 22.2822 22.2822 27.375 16 27.375ZM16 29C23.1797 29 29 23.1797 29 16C29 8.8203 23.1797 3 16 3C8.8203 3 3 8.8203 3 16C3 23.1797 8.8203 29 16 29Z" fill="#0065FF"/>
<path d="M17.5124 13.7053L13.7895 14.1719L13.6562 14.7908L14.3893 14.9241C14.8654 15.0383 14.9606 15.2097 14.8559 15.6858L13.6562 21.3225C13.342 22.7793 13.8276 23.4648 14.9702 23.4648C15.8557 23.4648 16.884 23.0554 17.3505 22.4937L17.4933 21.8176C17.1696 22.1033 16.6935 22.2175 16.3793 22.2175C15.9318 22.2175 15.77 21.9033 15.8842 21.3511L17.5124 13.7053Z" fill="#0065FF"/>
<path d="M17.625 10.3125C17.625 11.21 16.8975 11.9375 16 11.9375C15.1025 11.9375 14.375 11.21 14.375 10.3125C14.375 9.41504 15.1025 8.6875 16 8.6875C16.8975 8.6875 17.625 9.41504 17.625 10.3125Z" fill="#0065FF"/>
<defs>
<filter id="filter0_d_1633_31491" x="0" y="0" width="34" height="34" filterUnits="userSpaceOnUse" color-interpolation-filters="sRGB">
<feFlood flood-opacity="0" result="BackgroundImageFix"/>
<feColorMatrix in="SourceAlpha" type="matrix" values="0 0 0 0 0 0 0 0 0 0 0 0 0 0 0 0 0 0 127 0" result="hardAlpha"/>
<feOffset dx="1" dy="1"/>
<feGaussianBlur stdDeviation="2"/>
<feComposite in2="hardAlpha" operator="out"/>
<feColorMatrix type="matrix" values="0 0 0 0 0 0 0 0 0 0 0 0 0 0 0 0 0 0 0.25 0"/>
<feBlend mode="normal" in2="BackgroundImageFix" result="effect1_dropShadow_1633_31491"/>
<feBlend mode="normal" in="SourceGraphic" in2="effect1_dropShadow_1633_31491" result="shape"/>
</filter>
</defs>
</svg>
