<?xml version="1.0" standalone="no"?>
<!DOCTYPE svg PUBLIC "-//W3C//DTD SVG 20010904//EN"
 "http://www.w3.org/TR/2001/REC-SVG-20010904/DTD/svg10.dtd">
<svg version="1.0" xmlns="http://www.w3.org/2000/svg"
 width="512.000000pt" height="512.000000pt" viewBox="0 0 512.000000 512.000000"
 preserveAspectRatio="xMidYMid meet">

<g transform="translate(0.000000,512.000000) scale(0.100000,-0.100000)"
fill="#000000" stroke="none">
<path d="M2523 4880 c-12 -5 -576 -352 -1254 -771 -917 -568 -1236 -770 -1251
-793 -24 -39 -19 -98 13 -132 12 -13 111 -79 220 -146 110 -68 199 -126 199
-129 0 -3 -91 -62 -202 -131 -112 -69 -212 -136 -223 -148 -29 -32 -28 -110 3
-143 12 -13 112 -79 222 -147 110 -68 200 -126 200 -129 0 -3 -89 -61 -199
-129 -109 -67 -208 -133 -220 -146 -32 -34 -37 -93 -13 -132 15 -23 334 -225
1252 -793 678 -420 1245 -767 1261 -773 20 -7 39 -7 58 0 16 6 584 354 1261
773 917 567 1237 770 1252 793 24 39 18 99 -13 132 -13 14 -112 80 -221 147
-109 67 -198 125 -198 128 0 3 91 62 203 131 111 69 211 136 222 148 29 32 28
110 -3 143 -12 13 -112 79 -222 147 -110 68 -200 126 -200 129 0 3 89 61 198
128 109 67 208 133 221 147 31 33 37 93 13 132 -15 23 -334 225 -1251 793
-677 419 -1243 766 -1257 771 -30 12 -42 12 -71 0z m1147 -932 c597 -369 1090
-676 1097 -682 9 -8 -271 -186 -1091 -693 -607 -376 -1109 -683 -1116 -683
-20 0 -2219 1364 -2212 1372 4 4 502 314 1107 688 681 422 1105 678 1114 675
9 -4 504 -308 1101 -677z m-2064 -1750 c849 -526 912 -563 954 -563 42 0 105
37 955 564 501 311 917 565 925 565 18 0 330 -193 330 -204 0 -9 -2195 -1370
-2210 -1370 -15 0 -2210 1361 -2210 1370 0 12 323 210 336 206 6 -2 420 -258
920 -568z m-51 -666 c992 -614 972 -602 1006 -602 31 0 3 -17 1038 624 459
284 840 515 846 514 6 -2 83 -48 172 -103 121 -75 159 -103 150 -111 -29 -27
-2193 -1358 -2207 -1358 -14 0 -2177 1331 -2207 1358 -9 8 30 37 155 114 98
60 173 100 182 97 8 -4 397 -243 865 -533z"/>
</g>
</svg>
